# xmcd
#
# Track frame offsets: 
#        150
#        35398
#        66418
#        89644
#        123525
#        154119
#        184348
#        220199
#        259181
#        279746
#        312425
#
# Disc length: 4680 seconds
#
# Revision: 0
# Processed by: cddbd v1.5.2PL0 Copyright (c) Steve Scherf et al.
# Submitted via: ExactAudioCopy v0.99pb4
#
DISCID=ab12460b
DTITLE=Various Artist - Chicago Masters: Legend Of House 1985-2006 (Disc1)
DYEAR=2006
DGENRE=House
TTITLE0=STERLING VOID - It's Alright (Chris Lake Straight Mix)
TTITLE1=RHYTHM REPUBLIC vs. KENNY "JAMMIN" JASON - Can U Dance (Soul A
TTITLE1=vengerz Mix)
TTITLE2=MARSHALL JEFFERSON - Move Your Body (Dakeyne Mix)
TTITLE3=FUTUREFORCE vs. MR. FINGERS - Can You Feel It (Nimred Remix)
TTITLE4=JOE SMOOTH - Promised Land (Dakeyne Remix)
TTITLE5=KERFUNK vs. ADONIS - We're Rocking Down The House (Micky Exten
TTITLE5=ded Club Vocal Mix)
TTITLE6=THE HOUSEMASTER BOYZ - House Nation (JK's Saracen Mix)
TTITLE7=FARLEY "JACKMASTER" FUNK - Love Can't Turn Around (Airheadz Mi
TTITLE7=x)
TTITLE8=RHYTHM REPUBLIC vs. MARSHALL JEFFERSON - Move Your Body (Soul 
TTITLE8=Avengerz Club Mix)
TTITLE9=BAM BAM - Where's Your Child (Paul Harris - Dirty Vegas Mix Re
TTITLE9=mix)
TTITLE10=SOUL FUNK SHUN vs. RALPHI ROSARIO - You Used to Hold Me (M*A*
TTITLE10=S*H Mix)
EXTD=
EXTT0=
EXTT1=
EXTT2=
EXTT3=
EXTT4=
EXTT5=
EXTT6=
EXTT7=
EXTT8=
EXTT9=
EXTT10=
PLAYORDER=
